{"glyphs":{"0":{"ha":1101,"x_min":10,"x_max":1013,"o":"m 865 149 q 699 38 792 75 q 510 1 607 1 q 501 1 506 1 q 493 1 497 1 q 313 42 401 4 q 156 149 225 79 q 47 315 83 222 q 10 504 10 407 q 10 513 10 508 q 10 521 10 517 q 49 701 13 613 q 156 858 86 789 q 322 968 229 932 q 511 1004 414 1004 q 519 1004 515 1004 q 528 1004 524 1004 q 708 965 619 1001 q 865 858 796 928 q 976 692 939 785 q 1013 503 1013 600 q 1013 494 1013 499 q 1013 486 1013 490 q 972 306 1010 394 q 865 149 935 218 l 865 149 z "},"1":{"ha":572,"x_min":26,"x_max":546,"o":"m 546 0 l 26 0 l 26 721 l 546 1003 l 546 0 l 546 0 z "},"2":{"ha":990,"x_min":44,"x_max":946,"o":"m 925 0 l 44 0 l 44 278 l 428 681 l 44 1003 l 567 1003 q 852 885 758 1003 q 946 625 946 767 q 880 399 946 506 q 682 256 814 293 l 925 0 l 925 0 z "},"3":{"ha":1063,"x_min":49,"x_max":1014,"o":"m 1014 250 q 942 75 1014 149 q 767 0 869 1 l 49 0 l 346 253 l 49 488 l 372 729 l 49 1003 l 767 1001 q 942 927 869 1000 q 1014 751 1014 854 q 942 576 1014 649 q 767 501 869 503 q 942 426 869 500 q 1014 250 1014 353 l 1014 250 z "},"4":{"ha":1051,"x_min":47,"x_max":1003,"o":"m 1003 0 l 299 0 l 299 253 l 47 253 l 1003 1003 l 1003 0 l 1003 0 z "},"5":{"ha":990,"x_min":44,"x_max":946,"o":"m 828 1003 l 568 763 q 848 643 753 761 q 946 385 943 525 q 946 380 946 382 q 946 376 946 378 q 851 117 946 235 q 567 0 757 0 l 44 0 l 303 238 l 44 238 l 44 1003 l 828 1003 l 828 1003 z "},"6":{"ha":936,"x_min":43,"x_max":893,"o":"m 893 350 q 791 103 893 206 q 544 0 689 0 q 190 147 338 0 q 43 501 43 294 q 190 856 43 708 q 544 1003 338 1003 l 544 700 q 791 597 689 700 q 893 350 893 494 l 893 350 z "},"7":{"ha":1214,"x_min":56,"x_max":1158,"o":"m 1158 1003 l 738 0 l 103 0 l 454 690 l 56 1003 l 1158 1003 l 1158 1003 z "},"8":{"ha":974,"x_min":44,"x_max":931,"o":"m 931 339 q 800 94 931 196 q 488 -7 669 -7 q 174 94 304 -7 q 44 339 44 196 q 76 469 44 408 q 164 575 108 529 q 142 634 150 603 q 135 697 135 665 q 238 913 135 824 q 488 1003 342 1003 q 737 913 633 1003 q 840 697 840 824 q 833 634 840 665 q 811 575 825 603 q 899 469 867 529 q 931 339 931 408 l 931 339 z "},"9":{"ha":936,"x_min":43,"x_max":893,"o":"m 893 501 q 746 147 893 294 q 392 0 599 0 l 392 301 q 146 404 249 301 q 43 651 43 507 q 146 899 43 796 q 392 1001 249 1001 l 392 1003 q 746 856 599 1003 q 893 501 893 708 l 893 501 z "}," ":{"ha":486,"x_min":0,"x_max":0,"o":""},"!":{"ha":526,"x_min":24,"x_max":503,"o":"m 503 81 q 433 10 503 39 q 264 -19 363 -19 q 94 10 165 -19 q 24 81 24 39 q 94 152 24 122 q 264 182 165 182 q 433 152 363 182 q 503 81 503 122 l 503 81 m 503 265 l 24 265 l 24 1003 l 503 1003 l 503 265 l 503 265 z "},"\"":{"ha":604,"x_min":40,"x_max":603,"o":"m 603 1072 l 426 782 l 304 782 l 304 1015 l 163 782 l 40 782 l 40 1072 l 603 1072 l 603 1072 z "},"#":{"ha":694,"x_min":0,"x_max":0,"o":""},"$":{"ha":806,"x_min":36,"x_max":768,"o":"m 768 850 l 563 697 l 628 631 q 689 542 667 593 q 711 433 711 490 q 640 248 711 328 q 465 156 568 168 l 465 0 l 339 0 l 339 153 l 36 153 l 243 307 l 176 372 q 117 462 139 411 q 94 571 94 513 q 165 756 94 678 q 339 849 236 835 l 339 1003 l 465 1003 l 465 850 l 768 850 l 768 850 z "},"%":{"ha":694,"x_min":0,"x_max":0,"o":""},"&":{"ha":1444,"x_min":65,"x_max":1379,"o":"m 1379 0 l 489 0 q 453 1 471 0 q 415 6 435 3 q 175 111 285 25 q 65 344 65 197 q 107 458 65 404 q 199 556 149 511 q 214 567 207 561 q 228 579 221 574 q 206 638 214 607 q 197 700 197 668 q 301 914 197 825 q 550 1003 406 1003 q 800 914 696 1003 q 904 700 904 825 q 897 642 904 669 q 878 586 890 614 l 1203 586 l 1025 382 l 1379 0 l 1379 0 z "},"'":{"ha":343,"x_min":40,"x_max":339,"o":"m 339 1072 l 163 782 l 40 782 l 40 1072 l 339 1072 l 339 1072 z "},"(":{"ha":435,"x_min":19,"x_max":415,"o":"m 415 -278 q 135 -73 251 -276 q 19 417 19 131 q 135 907 19 703 q 415 1111 251 1111 l 415 -278 l 415 -278 z "},")":{"ha":435,"x_min":26,"x_max":422,"o":"m 422 417 q 306 -73 422 131 q 26 -276 190 -276 l 26 1111 q 306 907 190 1111 q 422 417 422 703 l 422 417 z "},"*":{"ha":592,"x_min":26,"x_max":564,"o":"m 564 713 l 385 713 l 296 579 l 206 713 l 26 713 l 117 846 l 26 978 l 206 978 l 296 1111 l 385 978 l 564 978 l 475 846 l 564 713 l 564 713 z "},"+":{"ha":694,"x_min":0,"x_max":0,"o":""},",":{"ha":526,"x_min":24,"x_max":503,"o":"m 503 60 q 431 -80 503 -33 q 272 -128 358 -126 q 267 -128 269 -128 q 264 -128 265 -128 l 264 -21 q 94 10 165 -19 q 24 81 24 39 q 94 152 24 122 q 264 182 165 182 q 433 144 363 182 q 503 60 503 107 l 503 60 z "},"-":{"ha":526,"x_min":24,"x_max":503,"o":"m 503 321 l 24 321 l 24 558 l 503 558 l 503 321 l 503 321 z "},".":{"ha":526,"x_min":24,"x_max":503,"o":"m 503 81 q 433 10 503 39 q 264 -19 363 -19 q 94 10 165 -19 q 24 81 24 39 q 94 152 24 122 q 264 182 165 182 q 433 152 363 182 q 503 81 503 122 l 503 81 z "},"/":{"ha":563,"x_min":-11,"x_max":546,"o":"m 546 1079 l 88 -254 l -11 -254 l 447 1079 l 546 1079 l 546 1079 z "},":":{"ha":526,"x_min":24,"x_max":503,"o":"m 503 81 q 433 10 503 39 q 264 -19 363 -19 q 94 10 165 -19 q 24 81 24 39 q 94 152 24 122 q 264 182 165 182 q 433 152 363 182 q 503 81 503 122 l 503 81 m 503 344 q 433 273 503 303 q 264 243 363 243 q 94 273 165 243 q 24 344 24 303 q 94 416 24 386 q 264 446 165 446 q 433 416 363 446 q 503 344 503 386 l 503 344 z "},";":{"ha":526,"x_min":24,"x_max":503,"o":"m 503 60 q 431 -80 503 -33 q 272 -128 358 -126 q 267 -128 269 -128 q 264 -128 265 -128 l 264 -21 q 94 10 165 -19 q 24 81 24 39 q 94 152 24 122 q 264 182 165 182 q 433 144 363 182 q 503 60 503 107 l 503 60 m 503 344 q 433 273 503 303 q 264 243 363 243 q 94 273 165 243 q 24 344 24 303 q 94 416 24 386 q 264 446 165 446 q 433 416 363 446 q 503 344 503 386 l 503 344 z "},"<":{"ha":694,"x_min":0,"x_max":0,"o":""},"=":{"ha":694,"x_min":0,"x_max":0,"o":""},">":{"ha":694,"x_min":0,"x_max":0,"o":""},"?":{"ha":835,"x_min":38,"x_max":796,"o":"m 631 81 q 560 10 631 39 q 392 -19 490 -19 q 222 10 293 -19 q 151 81 151 39 q 222 152 151 122 q 392 182 293 182 q 560 152 490 182 q 631 81 631 122 l 631 81 m 796 600 q 765 444 796 517 q 678 315 733 371 l 588 226 l 163 226 q 132 311 143 267 q 121 403 121 356 q 153 558 121 485 q 239 686 185 632 l 335 782 l 38 1003 l 393 1003 q 678 884 560 1003 q 796 600 796 765 l 796 600 z "},"@":{"ha":1101,"x_min":50,"x_max":1051,"o":"m 1046 425 l 789 425 l 551 838 l 236 293 l 1007 293 q 963 217 989 254 q 906 147 938 181 q 748 41 836 78 q 568 1 660 4 q 560 1 564 1 q 551 1 556 1 q 362 38 454 1 q 196 147 269 75 q 90 305 126 217 q 50 485 53 393 q 50 493 50 489 q 50 501 50 497 q 87 691 50 599 q 196 857 124 783 q 353 964 265 926 q 533 1004 442 1001 q 542 1004 538 1004 q 550 1004 546 1004 q 740 967 647 1004 q 906 857 832 931 q 1012 699 975 788 q 1051 519 1049 611 q 1051 511 1051 515 q 1051 503 1051 507 q 1050 464 1051 483 q 1046 425 1049 444 l 1046 425 z "},"A":{"ha":1192,"x_min":8,"x_max":1165,"o":"m 1165 0 l 8 0 l 586 1003 l 1165 0 l 1165 0 z "},"B":{"ha":990,"x_min":1,"x_max":958,"o":"m 681 564 q 889 474 819 563 q 958 278 958 385 q 888 87 958 174 q 678 0 818 0 l 1 0 l 1 1003 l 500 1003 q 688 923 619 1003 q 757 744 757 843 q 757 736 757 740 q 757 726 757 732 q 734 641 753 683 q 681 564 715 599 l 681 564 z "},"C":{"ha":890,"x_min":3,"x_max":858,"o":"m 858 147 q 692 37 785 74 q 503 0 600 0 q 494 0 499 0 q 486 0 490 0 q 306 40 394 3 q 149 147 218 78 q 40 313 76 221 q 3 503 3 406 q 40 691 3 599 q 149 856 76 783 q 315 966 222 929 q 504 1003 407 1003 q 513 1003 508 1003 q 521 1003 517 1003 q 701 963 613 1000 q 858 856 789 925 l 503 501 l 858 147 l 858 147 z "},"D":{"ha":1022,"x_min":0,"x_max":993,"o":"m 993 501 q 846 147 993 294 q 492 0 699 0 l 0 0 l 0 1003 l 492 1003 q 846 856 699 1003 q 993 501 993 708 l 993 501 z "},"E":{"ha":1104,"x_min":3,"x_max":1063,"o":"m 1063 0 l 3 0 l 3 1003 l 1063 1003 l 633 653 l 957 488 l 660 331 l 1063 0 l 1063 0 z "},"F":{"ha":1083,"x_min":3,"x_max":1063,"o":"m 1063 1003 l 633 653 l 957 488 l 658 331 l 658 0 l 3 0 l 3 1003 l 1063 1003 l 1063 1003 z "},"G":{"ha":1036,"x_min":4,"x_max":1007,"o":"m 1007 501 q 860 147 1007 294 q 506 0 713 0 q 151 147 299 0 q 4 501 4 294 q 151 856 4 708 q 506 1003 299 1003 l 506 501 l 1007 501 l 1007 501 z "},"H":{"ha":947,"x_min":0,"x_max":911,"o":"m 911 0 l 456 281 l 0 0 l 0 1003 l 456 722 l 911 1003 l 911 0 l 911 0 z "},"I":{"ha":572,"x_min":1,"x_max":521,"o":"m 521 0 l 1 0 l 1 1003 l 521 1003 l 521 0 l 521 0 z "},"J":{"ha":1063,"x_min":4,"x_max":1007,"o":"m 1007 501 q 860 147 1007 294 q 506 0 713 0 q 151 147 299 0 q 4 501 4 294 l 318 501 l 318 1003 l 1007 1003 l 1007 501 l 1007 501 z "},"K":{"ha":1143,"x_min":6,"x_max":1108,"o":"m 1108 1 l 6 1 l 6 1004 l 1108 1004 l 688 622 l 1108 1 l 1108 1 z "},"L":{"ha":1113,"x_min":0,"x_max":1103,"o":"m 1103 1 l 0 1 l 0 1004 l 704 1004 l 704 314 l 1103 1 l 1103 1 z "},"M":{"ha":1111,"x_min":7,"x_max":1076,"o":"m 1076 1 l 892 142 l 542 1 l 193 142 l 7 1 l 7 1004 l 542 724 l 1076 1004 l 1076 1 l 1076 1 z "},"N":{"ha":958,"x_min":6,"x_max":913,"o":"m 913 1 l 185 142 l 6 1 l 6 1004 l 733 864 l 913 1004 l 913 1 l 913 1 z "},"O":{"ha":1056,"x_min":10,"x_max":1013,"o":"m 865 149 q 699 38 792 75 q 510 1 607 1 q 501 1 506 1 q 493 1 497 1 q 313 42 401 4 q 156 149 225 79 q 47 315 83 222 q 10 504 10 407 q 10 513 10 508 q 10 521 10 517 q 49 701 13 613 q 156 858 86 789 q 322 968 229 932 q 511 1004 414 1004 q 519 1004 515 1004 q 528 1004 524 1004 q 708 965 619 1001 q 865 858 796 928 q 976 692 939 785 q 1013 503 1013 600 q 1013 494 1013 499 q 1013 486 1013 490 q 972 306 1010 394 q 865 149 935 218 l 865 149 z "},"P":{"ha":936,"x_min":4,"x_max":906,"o":"m 528 1 l 4 1 l 4 1004 l 526 1004 q 811 887 717 1004 q 906 626 906 769 q 906 624 906 625 q 906 622 906 624 q 808 362 903 481 q 528 242 714 243 l 528 1 l 528 1 z "},"Q":{"ha":1111,"x_min":11,"x_max":1078,"o":"m 1078 -3 q 980 -1 1064 -1 q 799 -1 896 -1 q 791 -1 794 -1 q 783 -1 788 -1 q 599 0 682 0 q 517 0 517 0 q 508 0 513 0 q 500 0 504 0 q 318 38 407 1 q 158 144 229 74 q 48 310 85 218 q 11 500 11 403 q 11 508 11 504 q 11 517 11 513 q 51 697 14 608 q 158 854 89 785 q 324 964 232 928 q 514 1000 417 1000 q 702 964 610 1000 q 867 854 794 928 q 977 688 940 781 q 1014 497 1014 594 q 981 318 1014 406 q 881 158 947 231 l 1078 -3 l 1078 -3 z "},"R":{"ha":935,"x_min":-1,"x_max":900,"o":"m 871 1 l -1 1 l -1 1004 l 521 1004 q 806 887 711 1004 q 900 626 900 769 q 900 624 900 625 q 900 622 900 624 q 803 362 897 481 q 522 242 708 243 l 871 1 l 871 1 z "},"S":{"ha":1086,"x_min":3,"x_max":1054,"o":"m 1054 1004 l 758 783 l 853 689 q 940 560 908 633 q 971 404 971 488 q 853 119 971 238 q 569 1 735 1 l 3 1 l 300 222 l 204 317 q 117 445 149 372 q 86 601 86 518 q 204 885 86 767 q 489 1004 322 1004 l 1054 1004 l 1054 1004 z "},"T":{"ha":1176,"x_min":-3,"x_max":1154,"o":"m 1154 1003 l 836 701 l 836 0 l 315 0 l 315 701 l -3 1003 l 1154 1003 l 1154 1003 z "},"U":{"ha":938,"x_min":4,"x_max":892,"o":"m 892 449 q 761 135 892 265 q 447 4 631 4 q 135 135 265 4 q 4 449 4 265 l 4 1003 l 892 1003 l 892 449 l 892 449 z "},"V":{"ha":1197,"x_min":8,"x_max":1165,"o":"m 1165 1003 l 586 0 l 8 1003 l 586 792 l 1165 1003 l 1165 1003 z "},"W":{"ha":1240,"x_min":6,"x_max":1214,"o":"m 1214 1003 l 933 0 l 610 281 l 286 0 l 6 1003 l 260 792 l 610 1003 l 960 792 l 1214 1003 l 1214 1003 z "},"X":{"ha":1192,"x_min":8,"x_max":1165,"o":"m 1165 0 l 8 0 l 322 546 l 58 1003 l 1115 1003 l 851 546 l 1165 0 l 1165 0 z "},"Y":{"ha":1188,"x_min":3,"x_max":1160,"o":"m 1160 1003 l 842 590 l 842 0 l 321 0 l 321 590 l 3 1003 l 1160 1003 l 1160 1003 z "},"Z":{"ha":1106,"x_min":-1,"x_max":1088,"o":"m 1088 0 l -1 0 l 304 735 l -1 1003 l 1088 1003 l 782 268 l 1088 0 l 1088 0 z "},"[":{"ha":694,"x_min":0,"x_max":0,"o":""},"\\":{"ha":563,"x_min":10,"x_max":567,"o":"m 10 1079 l 108 1079 l 567 -254 l 468 -254 l 10 1079 l 10 1079 z "},"]":{"ha":694,"x_min":0,"x_max":0,"o":""},"^":{"ha":694,"x_min":0,"x_max":0,"o":""},"_":{"ha":936,"x_min":-4,"x_max":954,"o":"m 954 -165 l -4 -165 l -4 -67 l 954 -67 l 954 -165 l 954 -165 z "},"`":{"ha":510,"x_min":64,"x_max":443,"o":"m 443 914 l 64 914 l 64 1111 l 443 971 l 443 914 l 443 914 z "},"a":{"ha":1192,"x_min":8,"x_max":1165,"o":"m 1165 0 l 8 0 l 586 1003 l 1165 0 l 1165 0 z "},"b":{"ha":990,"x_min":1,"x_max":958,"o":"m 681 564 q 889 474 819 563 q 958 278 958 385 q 888 87 958 174 q 678 0 818 0 l 1 0 l 1 1003 l 500 1003 q 688 923 619 1003 q 757 744 757 843 q 757 736 757 740 q 757 726 757 732 q 734 641 753 683 q 681 564 715 599 l 681 564 z "},"c":{"ha":890,"x_min":3,"x_max":858,"o":"m 858 147 q 692 37 785 74 q 503 0 600 0 q 494 0 499 0 q 486 0 490 0 q 306 40 394 3 q 149 147 218 78 q 40 313 76 221 q 3 503 3 406 q 40 691 3 599 q 149 856 76 783 q 315 966 222 929 q 504 1003 407 1003 q 513 1003 508 1003 q 521 1003 517 1003 q 701 963 613 1000 q 858 856 789 925 l 503 501 l 858 147 l 858 147 z "},"d":{"ha":1022,"x_min":0,"x_max":993,"o":"m 993 501 q 846 147 993 294 q 492 0 699 0 l 0 0 l 0 1003 l 492 1003 q 846 856 699 1003 q 993 501 993 708 l 993 501 z "},"e":{"ha":1104,"x_min":3,"x_max":1063,"o":"m 1063 0 l 3 0 l 3 1003 l 1063 1003 l 633 653 l 957 488 l 660 331 l 1063 0 l 1063 0 z "},"f":{"ha":1083,"x_min":3,"x_max":1063,"o":"m 1063 1003 l 633 653 l 957 488 l 658 331 l 658 0 l 3 0 l 3 1003 l 1063 1003 l 1063 1003 z "},"g":{"ha":1036,"x_min":4,"x_max":1007,"o":"m 1007 501 q 860 147 1007 294 q 506 0 713 0 q 151 147 299 0 q 4 501 4 294 q 151 856 4 708 q 506 1003 299 1003 l 506 501 l 1007 501 l 1007 501 z "},"h":{"ha":947,"x_min":0,"x_max":911,"o":"m 911 0 l 456 281 l 0 0 l 0 1003 l 456 722 l 911 1003 l 911 0 l 911 0 z "},"i":{"ha":572,"x_min":1,"x_max":521,"o":"m 521 0 l 1 0 l 1 1003 l 521 1003 l 521 0 l 521 0 z "},"j":{"ha":1063,"x_min":4,"x_max":1007,"o":"m 1007 501 q 860 147 1007 294 q 506 0 713 0 q 151 147 299 0 q 4 501 4 294 l 318 501 l 318 1003 l 1007 1003 l 1007 501 l 1007 501 z "},"k":{"ha":1143,"x_min":6,"x_max":1108,"o":"m 1108 1 l 6 1 l 6 1004 l 1108 1004 l 688 622 l 1108 1 l 1108 1 z "},"l":{"ha":1113,"x_min":0,"x_max":1103,"o":"m 1103 1 l 0 1 l 0 1004 l 704 1004 l 704 314 l 1103 1 l 1103 1 z "},"m":{"ha":1111,"x_min":7,"x_max":1076,"o":"m 1076 1 l 892 142 l 542 1 l 193 142 l 7 1 l 7 1004 l 542 724 l 1076 1004 l 1076 1 l 1076 1 z "},"n":{"ha":958,"x_min":6,"x_max":913,"o":"m 913 1 l 185 142 l 6 1 l 6 1004 l 733 864 l 913 1004 l 913 1 l 913 1 z "},"o":{"ha":1056,"x_min":10,"x_max":1013,"o":"m 865 149 q 699 38 792 75 q 510 1 607 1 q 501 1 506 1 q 493 1 497 1 q 313 42 401 4 q 156 149 225 79 q 47 315 83 222 q 10 504 10 407 q 10 513 10 508 q 10 521 10 517 q 49 701 13 613 q 156 858 86 789 q 322 968 229 932 q 511 1004 414 1004 q 519 1004 515 1004 q 528 1004 524 1004 q 708 965 619 1001 q 865 858 796 928 q 976 692 939 785 q 1013 503 1013 600 q 1013 494 1013 499 q 1013 486 1013 490 q 972 306 1010 394 q 865 149 935 218 l 865 149 z "},"p":{"ha":936,"x_min":4,"x_max":906,"o":"m 528 1 l 4 1 l 4 1004 l 526 1004 q 811 887 717 1004 q 906 626 906 769 q 906 624 906 625 q 906 622 906 624 q 808 362 903 481 q 528 242 714 243 l 528 1 l 528 1 z "},"q":{"ha":1111,"x_min":11,"x_max":1078,"o":"m 1078 -3 q 980 -1 1064 -1 q 799 -1 896 -1 q 791 -1 794 -1 q 783 -1 788 -1 q 599 0 682 0 q 517 0 517 0 q 508 0 513 0 q 500 0 504 0 q 318 38 407 1 q 158 144 229 74 q 48 310 85 218 q 11 500 11 403 q 11 508 11 504 q 11 517 11 513 q 51 697 14 608 q 158 854 89 785 q 324 964 232 928 q 514 1000 417 1000 q 702 964 610 1000 q 867 854 794 928 q 977 688 940 781 q 1014 497 1014 594 q 981 318 1014 406 q 881 158 947 231 l 1078 -3 l 1078 -3 z "},"r":{"ha":935,"x_min":-1,"x_max":900,"o":"m 871 1 l -1 1 l -1 1004 l 521 1004 q 806 887 711 1004 q 900 626 900 769 q 900 624 900 625 q 900 622 900 624 q 803 362 897 481 q 522 242 708 243 l 871 1 l 871 1 z "},"s":{"ha":1086,"x_min":3,"x_max":1054,"o":"m 1054 1004 l 758 783 l 853 689 q 940 560 908 633 q 971 404 971 488 q 853 119 971 238 q 569 1 735 1 l 3 1 l 300 222 l 204 317 q 117 445 149 372 q 86 601 86 518 q 204 885 86 767 q 489 1004 322 1004 l 1054 1004 l 1054 1004 z "},"t":{"ha":1176,"x_min":-3,"x_max":1154,"o":"m 1154 1003 l 836 701 l 836 0 l 315 0 l 315 701 l -3 1003 l 1154 1003 l 1154 1003 z "},"u":{"ha":938,"x_min":4,"x_max":892,"o":"m 892 449 q 761 135 892 265 q 447 4 631 4 q 135 135 265 4 q 4 449 4 265 l 4 1003 l 892 1003 l 892 449 l 892 449 z "},"v":{"ha":1197,"x_min":8,"x_max":1165,"o":"m 1165 1003 l 586 0 l 8 1003 l 586 792 l 1165 1003 l 1165 1003 z "},"w":{"ha":1240,"x_min":6,"x_max":1214,"o":"m 1214 1003 l 933 0 l 610 281 l 286 0 l 6 1003 l 260 792 l 610 1003 l 960 792 l 1214 1003 l 1214 1003 z "},"x":{"ha":1192,"x_min":8,"x_max":1165,"o":"m 1165 0 l 8 0 l 322 546 l 58 1003 l 1115 1003 l 851 546 l 1165 0 l 1165 0 z "},"y":{"ha":1188,"x_min":3,"x_max":1160,"o":"m 1160 1003 l 842 590 l 842 0 l 321 0 l 321 590 l 3 1003 l 1160 1003 l 1160 1003 z "},"z":{"ha":1106,"x_min":-1,"x_max":1088,"o":"m 1088 0 l -1 0 l 304 735 l -1 1003 l 1088 1003 l 782 268 l 1088 0 l 1088 0 z "},"{":{"ha":694,"x_min":0,"x_max":0,"o":""},"|":{"ha":694,"x_min":0,"x_max":0,"o":""},"}":{"ha":694,"x_min":0,"x_max":0,"o":""},"~":{"ha":694,"x_min":0,"x_max":0,"o":""},"¡":{"ha":526,"x_min":22,"x_max":501,"o":"m 501 -275 l 22 -275 l 22 463 l 501 463 l 501 -275 l 501 -275 m 501 647 q 431 576 501 606 q 261 546 360 546 q 92 576 163 546 q 22 647 22 606 q 92 719 22 689 q 261 749 163 749 q 431 719 360 749 q 501 647 501 689 l 501 647 z "},"¢":{"ha":654,"x_min":31,"x_max":625,"o":"m 625 256 q 516 182 576 207 q 390 154 456 157 l 390 0 l 264 0 l 264 172 q 194 206 228 185 q 132 256 160 226 q 55 371 81 307 q 31 503 29 435 q 56 633 31 569 q 132 749 81 697 q 194 797 160 776 q 264 831 228 818 l 264 1003 l 390 1003 l 390 850 q 516 823 456 849 q 625 749 576 797 l 378 501 l 625 256 l 625 256 z "},"£":{"ha":1178,"x_min":54,"x_max":1124,"o":"m 1124 501 l 810 501 l 810 461 l 890 461 l 890 364 l 810 364 l 810 214 l 1114 0 l 121 0 l 121 364 l 54 364 l 54 461 l 121 461 l 121 501 q 268 856 121 708 q 622 1003 415 1003 q 976 856 829 1003 q 1124 501 1124 708 l 1124 501 z "},"¤":{"ha":1108,"x_min":50,"x_max":1058,"o":"m 1058 640 l 1003 543 l 694 543 l 654 501 l 694 461 l 956 461 l 900 364 l 792 364 l 1008 147 q 842 37 935 74 q 653 0 750 0 q 644 0 649 0 q 636 0 640 0 q 456 40 544 3 q 299 147 368 78 q 221 249 253 194 q 172 364 189 304 l 50 364 l 106 461 l 154 461 q 153 501 153 481 q 154 543 153 522 l 50 543 l 106 640 l 172 640 q 221 755 189 700 q 299 856 253 810 q 465 966 372 929 q 654 1003 557 1003 q 663 1003 658 1003 q 671 1003 667 1003 q 851 963 763 1000 q 1008 856 939 925 l 792 640 l 1058 640 l 1058 640 z "},"¥":{"ha":1274,"x_min":58,"x_max":1215,"o":"m 1215 1003 l 897 701 l 897 640 l 1056 640 l 1056 543 l 897 543 l 897 461 l 1056 461 l 1056 364 l 897 364 l 897 0 l 376 0 l 376 364 l 218 364 l 218 461 l 376 461 l 376 543 l 218 543 l 218 640 l 376 640 l 376 701 l 58 1003 l 1215 1003 l 1215 1003 z "},"¦":{"ha":694,"x_min":0,"x_max":0,"o":""},"§":{"ha":694,"x_min":0,"x_max":0,"o":""},"¨":{"ha":381,"x_min":17,"x_max":363,"o":"m 171 1028 q 149 973 171 996 q 94 950 126 950 q 40 973 63 950 q 17 1028 17 996 q 40 1082 17 1060 q 94 1104 63 1104 q 149 1082 126 1104 q 171 1028 171 1060 l 171 1028 m 363 1028 q 340 973 363 996 q 286 950 318 950 q 233 973 256 950 q 210 1028 210 996 q 233 1082 210 1060 q 286 1104 256 1104 q 340 1082 318 1104 q 363 1028 363 1060 l 363 1028 z "},"©":{"ha":694,"x_min":0,"x_max":0,"o":""},"ª":{"ha":628,"x_min":1,"x_max":581,"o":"m 581 500 l 1 500 l 290 1001 l 581 500 l 581 500 z "},"«":{"ha":632,"x_min":18,"x_max":597,"o":"m 597 163 l 354 371 l 354 163 l 18 451 l 354 742 q 354 709 354 742 q 354 636 354 676 q 354 565 354 597 q 354 532 354 532 l 597 742 l 597 163 l 597 163 z "},"¬":{"ha":694,"x_min":0,"x_max":0,"o":""},"­":{"ha":694,"x_min":0,"x_max":0,"o":""},"®":{"ha":694,"x_min":0,"x_max":0,"o":""},"¯":{"ha":486,"x_min":0,"x_max":0,"o":""},"°":{"ha":694,"x_min":0,"x_max":0,"o":""},"±":{"ha":694,"x_min":0,"x_max":0,"o":""},"²":{"ha":694,"x_min":0,"x_max":0,"o":""},"³":{"ha":694,"x_min":0,"x_max":0,"o":""},"´":{"ha":510,"x_min":65,"x_max":444,"o":"m 444 914 l 65 914 l 65 971 l 444 1111 l 444 914 l 444 914 z "},"µ":{"ha":694,"x_min":0,"x_max":0,"o":""},"¶":{"ha":694,"x_min":0,"x_max":0,"o":""},"·":{"ha":486,"x_min":0,"x_max":0,"o":""},"¸":{"ha":510,"x_min":101,"x_max":407,"o":"m 407 68 l 321 3 l 349 -25 q 374 -60 365 -39 q 383 -106 383 -82 q 349 -188 383 -154 q 267 -222 315 -222 l 101 -224 l 188 -160 l 160 -132 q 135 -94 144 -115 q 126 -49 126 -72 q 161 34 126 0 q 243 68 196 68 l 407 68 l 407 68 z "},"¹":{"ha":694,"x_min":0,"x_max":0,"o":""},"º":{"ha":551,"x_min":26,"x_max":526,"o":"m 453 578 q 377 525 419 543 q 290 504 335 507 q 283 504 286 504 q 275 504 279 504 q 181 523 228 504 q 99 578 135 542 q 47 653 65 611 q 26 740 28 696 q 26 748 26 744 q 26 756 26 751 q 44 850 26 804 q 99 932 63 896 q 174 984 132 965 q 261 1004 217 1003 q 269 1004 265 1004 q 276 1004 272 1004 q 371 986 325 1004 q 453 932 417 968 q 506 856 488 899 q 526 769 524 814 q 526 762 526 765 q 526 754 526 758 q 508 660 526 707 q 453 578 489 614 l 453 578 z "},"»":{"ha":632,"x_min":28,"x_max":607,"o":"m 28 163 l 28 742 l 271 532 q 271 565 271 532 q 271 636 271 597 q 271 709 271 676 q 271 742 271 742 l 607 451 l 271 163 l 271 371 l 28 163 l 28 163 z "},"¼":{"ha":694,"x_min":0,"x_max":0,"o":""},"½":{"ha":694,"x_min":0,"x_max":0,"o":""},"¾":{"ha":694,"x_min":0,"x_max":0,"o":""},"¿":{"ha":835,"x_min":29,"x_max":788,"o":"m 29 131 q 60 287 29 214 q 147 415 92 360 l 238 504 l 663 504 q 693 421 682 465 q 704 328 704 376 q 672 172 704 246 q 586 44 640 99 l 490 -51 l 788 -272 l 432 -272 q 147 -152 265 -271 q 29 131 29 -33 l 29 131 m 194 650 q 265 722 194 692 q 433 751 335 751 q 603 722 532 751 q 674 650 674 692 q 603 578 674 608 q 433 549 532 549 q 265 578 335 549 q 194 650 194 608 l 194 650 z "},"À":{"ha":1192,"x_min":8,"x_max":1165,"o":"m 1165 0 l 8 0 l 586 1003 l 1165 0 l 1165 0 m 781 1029 l 401 1029 l 401 1226 l 781 1086 l 781 1029 l 781 1029 z "},"Á":{"ha":1192,"x_min":8,"x_max":1165,"o":"m 1165 0 l 8 0 l 586 1003 l 1165 0 l 1165 0 m 776 1022 l 397 1022 l 397 1079 l 776 1219 l 776 1022 l 776 1022 z "},"Â":{"ha":1192,"x_min":8,"x_max":1165,"o":"m 1165 0 l 8 0 l 586 1003 l 1165 0 l 1165 0 m 818 1021 l 356 1021 l 586 1199 l 818 1021 l 818 1021 z "},"Ã":{"ha":1192,"x_min":8,"x_max":1165,"o":"m 1165 0 l 8 0 l 586 1003 l 1165 0 l 1165 0 m 739 1140 q 740 1136 739 1139 q 740 1132 740 1133 q 742 1127 742 1129 q 742 1122 742 1125 q 710 1061 742 1088 q 631 1028 679 1035 q 625 1027 628 1028 q 619 1026 622 1026 q 613 1026 615 1026 q 607 1026 610 1026 q 567 1031 586 1026 q 531 1044 547 1035 l 493 1063 l 482 1044 l 425 1036 l 417 1071 q 416 1076 417 1074 q 415 1081 415 1078 q 414 1085 414 1082 q 414 1089 414 1088 q 445 1149 414 1122 q 525 1182 476 1176 q 531 1183 528 1182 q 539 1183 535 1183 q 545 1183 542 1183 q 551 1183 549 1183 q 590 1179 571 1183 q 625 1167 608 1175 l 663 1149 l 672 1164 l 731 1172 l 739 1140 l 739 1140 z "},"Ä":{"ha":1192,"x_min":8,"x_max":1165,"o":"m 1165 0 l 8 0 l 586 1003 l 1165 0 l 1165 0 m 567 1060 q 544 1005 567 1028 q 490 982 522 982 q 435 1005 458 982 q 413 1060 413 1028 q 435 1114 413 1092 q 490 1136 458 1136 q 544 1114 522 1136 q 567 1060 567 1092 l 567 1060 m 758 1060 q 736 1005 758 1028 q 682 982 714 982 q 628 1005 651 982 q 606 1060 606 1028 q 628 1114 606 1092 q 682 1136 651 1136 q 736 1114 714 1136 q 758 1060 758 1092 l 758 1060 z "},"Å":{"ha":1192,"x_min":8,"x_max":1165,"o":"m 1165 0 l 8 0 l 586 1003 l 1165 0 l 1165 0 m 682 1103 q 655 1035 682 1064 q 588 1007 628 1007 q 520 1035 549 1007 q 492 1103 492 1064 q 520 1170 492 1143 q 588 1197 549 1197 q 655 1170 628 1197 q 682 1103 682 1143 l 682 1103 m 626 1103 q 615 1130 626 1118 q 588 1142 604 1142 q 558 1129 569 1142 q 547 1101 547 1117 q 551 1088 549 1094 q 560 1075 554 1081 q 574 1066 567 1069 q 588 1063 581 1063 q 615 1074 603 1063 q 626 1103 626 1085 l 626 1103 z "},"Æ":{"ha":1476,"x_min":4,"x_max":1431,"o":"m 1431 0 l 4 0 l 582 1003 l 1431 1003 l 1001 653 l 1325 488 l 1028 331 l 1431 0 l 1431 0 z "},"Ç":{"ha":890,"x_min":3,"x_max":858,"o":"m 615 68 l 529 3 l 557 -25 q 583 -60 574 -39 q 592 -106 592 -82 q 558 -188 592 -154 q 475 -222 524 -222 l 310 -224 l 396 -160 l 368 -132 q 344 -94 353 -115 q 335 -49 335 -72 q 369 34 335 0 q 451 68 404 68 l 615 68 l 615 68 m 858 147 q 692 37 785 74 q 503 0 600 0 q 494 0 499 0 q 486 0 490 0 q 306 40 394 3 q 149 147 218 78 q 40 313 76 221 q 3 503 3 406 q 40 691 3 599 q 149 856 76 783 q 315 966 222 929 q 504 1003 407 1003 q 513 1003 508 1003 q 521 1003 517 1003 q 701 963 613 1000 q 858 856 789 925 l 503 501 l 858 147 l 858 147 z "},"È":{"ha":1104,"x_min":3,"x_max":1063,"o":"m 1063 0 l 3 0 l 3 1003 l 1063 1003 l 633 653 l 957 488 l 660 331 l 1063 0 l 1063 0 m 707 1025 l 328 1025 l 328 1222 l 707 1082 l 707 1025 l 707 1025 z "},"É":{"ha":1104,"x_min":3,"x_max":1063,"o":"m 1063 0 l 3 0 l 3 1003 l 1063 1003 l 633 653 l 957 488 l 660 331 l 1063 0 l 1063 0 m 724 1018 l 344 1018 l 344 1075 l 724 1215 l 724 1018 l 724 1018 z "},"Ê":{"ha":1104,"x_min":3,"x_max":1063,"o":"m 1063 0 l 3 0 l 3 1003 l 1063 1003 l 633 653 l 957 488 l 660 331 l 1063 0 l 1063 0 m 736 1021 l 274 1021 l 504 1199 l 736 1021 l 736 1021 z "},"Ë":{"ha":1104,"x_min":3,"x_max":1063,"o":"m 1063 0 l 3 0 l 3 1003 l 1063 1003 l 633 653 l 957 488 l 660 331 l 1063 0 l 1063 0 m 496 1107 q 474 1052 496 1075 q 419 1029 451 1029 q 365 1052 388 1029 q 342 1107 342 1075 q 365 1161 342 1139 q 419 1183 388 1183 q 474 1161 451 1183 q 496 1107 496 1139 l 496 1107 m 688 1107 q 665 1052 688 1075 q 611 1029 643 1029 q 558 1052 581 1029 q 535 1107 535 1075 q 558 1161 535 1139 q 611 1183 581 1183 q 665 1161 643 1183 q 688 1107 688 1139 l 688 1107 z "},"Ì":{"ha":572,"x_min":1,"x_max":521,"o":"m 521 0 l 1 0 l 1 1003 l 521 1003 l 521 0 l 521 0 m 457 1025 l 78 1025 l 78 1222 l 457 1082 l 457 1025 l 457 1025 z "},"Í":{"ha":572,"x_min":1,"x_max":521,"o":"m 521 0 l 1 0 l 1 1003 l 521 1003 l 521 0 l 521 0 m 444 1025 l 65 1025 l 65 1082 l 444 1222 l 444 1025 l 444 1025 z "},"Î":{"ha":572,"x_min":1,"x_max":521,"o":"m 521 0 l 1 0 l 1 1003 l 521 1003 l 521 0 l 521 0 m 486 1035 l 24 1035 l 254 1213 l 486 1035 l 486 1035 z "},"Ï":{"ha":572,"x_min":1,"x_max":521,"o":"m 521 0 l 1 0 l 1 1003 l 521 1003 l 521 0 l 521 0 m 242 1107 q 219 1052 242 1075 q 165 1029 197 1029 q 110 1052 133 1029 q 88 1107 88 1075 q 110 1161 88 1139 q 165 1183 133 1183 q 219 1161 197 1183 q 242 1107 242 1139 l 242 1107 m 433 1107 q 411 1052 433 1075 q 357 1029 389 1029 q 303 1052 326 1029 q 281 1107 281 1075 q 303 1161 281 1139 q 357 1183 326 1183 q 411 1161 389 1183 q 433 1107 433 1139 l 433 1107 z "},"Ð":{"ha":1133,"x_min":4,"x_max":1096,"o":"m 1096 501 q 949 147 1096 294 q 594 0 801 0 l 103 0 l 103 435 l 4 435 l 4 568 l 103 568 l 103 1003 l 594 1003 q 949 856 801 1003 q 1096 501 1096 708 l 1096 501 z "},"Ñ":{"ha":958,"x_min":6,"x_max":913,"o":"m 913 1 l 185 142 l 6 1 l 6 1004 l 733 864 l 913 1004 l 913 1 l 913 1 m 633 1083 q 634 1079 633 1082 q 635 1075 635 1076 q 636 1070 636 1072 q 636 1065 636 1068 q 605 1004 636 1031 q 525 971 574 978 q 519 970 522 971 q 514 969 517 969 q 507 969 510 969 q 501 969 504 969 q 461 974 481 969 q 425 988 442 978 l 388 1006 l 376 988 l 319 979 l 311 1014 q 310 1019 311 1017 q 310 1024 310 1021 q 308 1028 308 1025 q 308 1032 308 1031 q 340 1092 308 1065 q 419 1125 371 1119 q 426 1126 422 1125 q 433 1126 429 1126 q 440 1126 436 1126 q 446 1126 443 1126 q 484 1122 465 1126 q 519 1110 503 1118 l 557 1092 l 567 1107 l 625 1115 l 633 1083 l 633 1083 z "},"Ò":{"ha":486,"x_min":0,"x_max":0,"o":""},"Ó":{"ha":1056,"x_min":10,"x_max":1013,"o":"m 865 149 q 699 38 792 75 q 510 1 607 1 q 501 1 506 1 q 493 1 497 1 q 313 42 401 4 q 156 149 225 79 q 47 315 83 222 q 10 504 10 407 q 10 513 10 508 q 10 521 10 517 q 49 701 13 613 q 156 858 86 789 q 322 968 229 932 q 511 1004 414 1004 q 519 1004 515 1004 q 528 1004 524 1004 q 708 965 619 1001 q 865 858 796 928 q 976 692 939 785 q 1013 503 1013 600 q 1013 494 1013 499 q 1013 486 1013 490 q 972 306 1010 394 q 865 149 935 218 l 865 149 m 699 1025 l 319 1025 l 319 1082 l 699 1222 l 699 1025 l 699 1025 z "},"Ô":{"ha":1056,"x_min":10,"x_max":1013,"o":"m 865 149 q 699 38 792 75 q 510 1 607 1 q 501 1 506 1 q 493 1 497 1 q 313 42 401 4 q 156 149 225 79 q 47 315 83 222 q 10 504 10 407 q 10 513 10 508 q 10 521 10 517 q 49 701 13 613 q 156 858 86 789 q 322 968 229 932 q 511 1004 414 1004 q 519 1004 515 1004 q 528 1004 524 1004 q 708 965 619 1001 q 865 858 796 928 q 976 692 939 785 q 1013 503 1013 600 q 1013 494 1013 499 q 1013 486 1013 490 q 972 306 1010 394 q 865 149 935 218 l 865 149 m 742 1031 l 279 1031 l 510 1208 l 742 1031 l 742 1031 z "},"Õ":{"ha":1056,"x_min":10,"x_max":1013,"o":"m 865 149 q 699 38 792 75 q 510 1 607 1 q 501 1 506 1 q 493 1 497 1 q 313 42 401 4 q 156 149 225 79 q 47 315 83 222 q 10 504 10 407 q 10 513 10 508 q 10 521 10 517 q 49 701 13 613 q 156 858 86 789 q 322 968 229 932 q 511 1004 414 1004 q 519 1004 515 1004 q 528 1004 524 1004 q 708 965 619 1001 q 865 858 796 928 q 976 692 939 785 q 1013 503 1013 600 q 1013 494 1013 499 q 1013 486 1013 490 q 972 306 1010 394 q 865 149 935 218 l 865 149 m 682 1138 q 683 1133 682 1136 q 683 1129 683 1131 q 685 1124 685 1126 q 685 1119 685 1122 q 653 1058 685 1085 q 574 1025 622 1032 q 568 1024 571 1025 q 563 1024 565 1024 q 556 1024 558 1024 q 550 1024 553 1024 q 510 1028 529 1024 q 474 1042 490 1032 l 436 1060 l 425 1042 l 368 1033 l 360 1068 q 359 1073 360 1071 q 358 1078 358 1075 q 357 1082 357 1079 q 357 1086 357 1085 q 388 1147 357 1119 q 468 1179 419 1174 q 474 1180 471 1179 q 482 1181 478 1181 q 488 1181 485 1181 q 494 1181 492 1181 q 533 1176 514 1181 q 568 1164 551 1172 l 606 1146 l 615 1161 l 674 1169 l 682 1138 l 682 1138 z "},"Ö":{"ha":1056,"x_min":10,"x_max":1013,"o":"m 865 149 q 699 38 792 75 q 510 1 607 1 q 501 1 506 1 q 493 1 497 1 q 313 42 401 4 q 156 149 225 79 q 47 315 83 222 q 10 504 10 407 q 10 513 10 508 q 10 521 10 517 q 49 701 13 613 q 156 858 86 789 q 322 968 229 932 q 511 1004 414 1004 q 519 1004 515 1004 q 528 1004 524 1004 q 708 965 619 1001 q 865 858 796 928 q 976 692 939 785 q 1013 503 1013 600 q 1013 494 1013 499 q 1013 486 1013 490 q 972 306 1010 394 q 865 149 935 218 l 865 149 m 483 1100 q 461 1045 483 1068 q 407 1022 439 1022 q 352 1045 375 1022 q 329 1100 329 1068 q 352 1154 329 1132 q 407 1176 375 1176 q 461 1154 439 1176 q 483 1100 483 1132 l 483 1100 m 675 1100 q 653 1045 675 1068 q 599 1022 631 1022 q 545 1045 568 1022 q 522 1100 522 1068 q 545 1154 522 1132 q 599 1176 568 1176 q 653 1154 631 1176 q 675 1100 675 1132 l 675 1100 z "},"×":{"ha":694,"x_min":0,"x_max":0,"o":""},"Ø":{"ha":1043,"x_min":0,"x_max":1010,"o":"m 1010 928 l 897 815 q 979 667 951 747 q 1006 503 1007 586 q 1006 494 1006 499 q 1006 486 1006 490 q 966 306 1003 394 q 860 149 929 218 q 694 39 788 76 q 504 3 601 1 q 494 3 499 3 q 483 3 489 3 q 332 33 407 7 q 193 111 257 60 l 79 -1 l 0 78 l 114 190 q 31 340 58 260 q 4 504 4 421 q 42 692 6 600 q 150 857 78 785 q 316 967 224 931 q 506 1003 408 1004 q 669 976 589 1003 q 818 894 750 949 l 931 1007 l 1010 928 l 1010 928 z "},"Ù":{"ha":938,"x_min":4,"x_max":892,"o":"m 892 449 q 761 135 892 265 q 447 4 631 4 q 135 135 265 4 q 4 449 4 265 l 4 1003 l 892 1003 l 892 449 l 892 449 m 635 1019 l 256 1019 l 256 1217 l 635 1076 l 635 1019 l 635 1019 z "},"Ú":{"ha":938,"x_min":4,"x_max":892,"o":"m 892 449 q 761 135 892 265 q 447 4 631 4 q 135 135 265 4 q 4 449 4 265 l 4 1003 l 892 1003 l 892 449 l 892 449 m 667 1025 l 288 1025 l 288 1082 l 667 1222 l 667 1025 l 667 1025 z "},"Û":{"ha":938,"x_min":4,"x_max":892,"o":"m 892 449 q 761 135 892 265 q 447 4 631 4 q 135 135 265 4 q 4 449 4 265 l 4 1003 l 892 1003 l 892 449 l 892 449 m 681 1021 l 218 1021 l 449 1199 l 681 1021 l 681 1021 z "},"Ü":{"ha":938,"x_min":4,"x_max":892,"o":"m 892 449 q 761 135 892 265 q 447 4 631 4 q 135 135 265 4 q 4 449 4 265 l 4 1003 l 892 1003 l 892 449 l 892 449 m 428 1094 q 406 1040 428 1063 q 351 1017 383 1017 q 297 1040 319 1017 q 274 1094 274 1063 q 297 1149 274 1126 q 351 1171 319 1171 q 406 1149 383 1171 q 428 1094 428 1126 l 428 1094 m 619 1094 q 597 1040 619 1063 q 543 1017 575 1017 q 490 1040 513 1017 q 467 1094 467 1063 q 490 1149 467 1126 q 543 1171 513 1171 q 597 1149 575 1171 q 619 1094 619 1126 l 619 1094 z "},"Ý":{"ha":486,"x_min":0,"x_max":0,"o":""},"Þ":{"ha":950,"x_min":4,"x_max":906,"o":"m 528 0 l 4 0 l 4 1004 l 528 1004 l 528 885 q 812 766 718 883 q 906 507 906 649 q 906 505 906 506 q 906 503 906 504 q 808 242 903 361 q 528 122 714 124 l 528 0 l 528 0 z "},"ß":{"ha":1242,"x_min":6,"x_max":1214,"o":"m 1214 257 q 1138 76 1214 151 q 957 0 1063 0 l 594 0 l 785 140 l 724 201 q 668 284 689 238 q 647 383 647 331 q 655 445 647 415 q 676 501 663 475 l 561 501 l 561 0 l 6 0 l 6 501 q 153 856 6 708 q 507 1003 300 1003 q 844 873 701 1003 q 1006 553 986 743 l 1138 439 q 1194 357 1174 404 q 1214 257 1214 310 l 1214 257 z "},"à":{"ha":694,"x_min":0,"x_max":0,"o":""},"á":{"ha":694,"x_min":0,"x_max":0,"o":""},"â":{"ha":694,"x_min":0,"x_max":0,"o":""},"ã":{"ha":694,"x_min":0,"x_max":0,"o":""},"ä":{"ha":694,"x_min":0,"x_max":0,"o":""},"å":{"ha":694,"x_min":0,"x_max":0,"o":""},"æ":{"ha":694,"x_min":0,"x_max":0,"o":""},"ç":{"ha":694,"x_min":0,"x_max":0,"o":""},"è":{"ha":694,"x_min":0,"x_max":0,"o":""},"é":{"ha":694,"x_min":0,"x_max":0,"o":""},"ê":{"ha":694,"x_min":0,"x_max":0,"o":""},"ë":{"ha":694,"x_min":0,"x_max":0,"o":""},"ì":{"ha":694,"x_min":0,"x_max":0,"o":""},"í":{"ha":694,"x_min":0,"x_max":0,"o":""},"î":{"ha":694,"x_min":0,"x_max":0,"o":""},"ï":{"ha":694,"x_min":0,"x_max":0,"o":""},"ð":{"ha":694,"x_min":0,"x_max":0,"o":""},"ñ":{"ha":694,"x_min":0,"x_max":0,"o":""},"ò":{"ha":694,"x_min":0,"x_max":0,"o":""},"ó":{"ha":694,"x_min":0,"x_max":0,"o":""},"ô":{"ha":694,"x_min":0,"x_max":0,"o":""},"õ":{"ha":694,"x_min":0,"x_max":0,"o":""},"ö":{"ha":694,"x_min":0,"x_max":0,"o":""},"÷":{"ha":694,"x_min":0,"x_max":0,"o":""},"ø":{"ha":694,"x_min":0,"x_max":0,"o":""},"ù":{"ha":694,"x_min":0,"x_max":0,"o":""},"ú":{"ha":694,"x_min":0,"x_max":0,"o":""},"û":{"ha":694,"x_min":0,"x_max":0,"o":""},"ü":{"ha":694,"x_min":0,"x_max":0,"o":""},"ý":{"ha":486,"x_min":0,"x_max":0,"o":""},"þ":{"ha":694,"x_min":0,"x_max":0,"o":""},"ÿ":{"ha":694,"x_min":0,"x_max":0,"o":""},"Ă":{"ha":486,"x_min":0,"x_max":0,"o":""},"ă":{"ha":486,"x_min":0,"x_max":0,"o":""},"Ą":{"ha":486,"x_min":0,"x_max":0,"o":""},"ą":{"ha":486,"x_min":0,"x_max":0,"o":""},"Ć":{"ha":486,"x_min":0,"x_max":0,"o":""},"ć":{"ha":486,"x_min":0,"x_max":0,"o":""},"Č":{"ha":486,"x_min":0,"x_max":0,"o":""},"č":{"ha":486,"x_min":0,"x_max":0,"o":""},"Ď":{"ha":486,"x_min":0,"x_max":0,"o":""},"ď":{"ha":486,"x_min":0,"x_max":0,"o":""},"Đ":{"ha":486,"x_min":0,"x_max":0,"o":""},"đ":{"ha":486,"x_min":0,"x_max":0,"o":""},"Ę":{"ha":486,"x_min":0,"x_max":0,"o":""},"ę":{"ha":486,"x_min":0,"x_max":0,"o":""},"Ě":{"ha":486,"x_min":0,"x_max":0,"o":""},"ě":{"ha":486,"x_min":0,"x_max":0,"o":""},"Ğ":{"ha":486,"x_min":0,"x_max":0,"o":""},"ğ":{"ha":486,"x_min":0,"x_max":0,"o":""},"İ":{"ha":486,"x_min":0,"x_max":0,"o":""},"ı":{"ha":694,"x_min":0,"x_max":0,"o":""},"Ĺ":{"ha":486,"x_min":0,"x_max":0,"o":""},"ĺ":{"ha":486,"x_min":0,"x_max":0,"o":""},"Ľ":{"ha":486,"x_min":0,"x_max":0,"o":""},"ľ":{"ha":486,"x_min":0,"x_max":0,"o":""},"Ŀ":{"ha":486,"x_min":0,"x_max":0,"o":""},"ŀ":{"ha":486,"x_min":0,"x_max":0,"o":""},"Ł":{"ha":694,"x_min":0,"x_max":0,"o":""},"ł":{"ha":694,"x_min":0,"x_max":0,"o":""},"Ń":{"ha":486,"x_min":0,"x_max":0,"o":""},"ń":{"ha":486,"x_min":0,"x_max":0,"o":""},"Ň":{"ha":486,"x_min":0,"x_max":0,"o":""},"ň":{"ha":486,"x_min":0,"x_max":0,"o":""},"Ő":{"ha":486,"x_min":0,"x_max":0,"o":""},"ő":{"ha":486,"x_min":0,"x_max":0,"o":""},"Œ":{"ha":1404,"x_min":10,"x_max":1360,"o":"m 1360 0 q 1128 0 1228 0 q 936 0 1028 0 q 743 0 843 0 q 511 0 643 0 q 157 147 304 0 q 10 501 10 294 q 158 856 10 708 q 511 1003 306 1003 l 1360 1003 l 931 653 l 1254 488 l 957 331 l 1360 0 l 1360 0 z "},"œ":{"ha":694,"x_min":0,"x_max":0,"o":""},"Ŕ":{"ha":486,"x_min":0,"x_max":0,"o":""},"ŕ":{"ha":486,"x_min":0,"x_max":0,"o":""},"Ř":{"ha":486,"x_min":0,"x_max":0,"o":""},"ř":{"ha":486,"x_min":0,"x_max":0,"o":""},"Ś":{"ha":486,"x_min":0,"x_max":0,"o":""},"ś":{"ha":486,"x_min":0,"x_max":0,"o":""},"Ş":{"ha":486,"x_min":0,"x_max":0,"o":""},"ş":{"ha":486,"x_min":0,"x_max":0,"o":""},"Š":{"ha":1086,"x_min":3,"x_max":1054,"o":"m 1054 1004 l 758 783 l 853 689 q 940 560 908 633 q 971 404 971 488 q 853 119 971 238 q 569 1 735 1 l 3 1 l 300 222 l 204 317 q 117 445 149 372 q 86 601 86 518 q 204 885 86 767 q 489 1004 322 1004 l 1054 1004 l 1054 1004 m 397 1179 l 860 1179 l 629 1001 l 397 1179 l 397 1179 z "},"š":{"ha":694,"x_min":0,"x_max":0,"o":""},"Ţ":{"ha":486,"x_min":0,"x_max":0,"o":""},"ţ":{"ha":486,"x_min":0,"x_max":0,"o":""},"Ť":{"ha":486,"x_min":0,"x_max":0,"o":""},"ť":{"ha":486,"x_min":0,"x_max":0,"o":""},"Ů":{"ha":486,"x_min":0,"x_max":0,"o":""},"ů":{"ha":486,"x_min":0,"x_max":0,"o":""},"Ű":{"ha":486,"x_min":0,"x_max":0,"o":""},"ű":{"ha":486,"x_min":0,"x_max":0,"o":""},"Ÿ":{"ha":1188,"x_min":3,"x_max":1160,"o":"m 1160 1003 l 842 590 l 842 0 l 321 0 l 321 590 l 3 1003 l 1160 1003 l 1160 1003 m 558 1092 q 536 1037 558 1060 q 482 1014 514 1014 q 427 1037 450 1014 q 404 1092 404 1060 q 427 1146 404 1124 q 482 1168 450 1168 q 536 1146 514 1168 q 558 1092 558 1124 l 558 1092 m 750 1092 q 728 1037 750 1060 q 674 1014 706 1014 q 620 1037 643 1014 q 597 1092 597 1060 q 620 1146 597 1124 q 674 1168 643 1168 q 728 1146 706 1168 q 750 1092 750 1124 l 750 1092 z "},"Ź":{"ha":486,"x_min":0,"x_max":0,"o":""},"ź":{"ha":486,"x_min":0,"x_max":0,"o":""},"Ż":{"ha":486,"x_min":0,"x_max":0,"o":""},"ż":{"ha":486,"x_min":0,"x_max":0,"o":""},"Ž":{"ha":694,"x_min":0,"x_max":0,"o":""},"ž":{"ha":694,"x_min":0,"x_max":0,"o":""},"ƒ":{"ha":1125,"x_min":51,"x_max":1074,"o":"m 1074 856 l 907 501 l 907 460 l 1033 460 l 1033 347 l 907 347 l 907 276 q 760 -77 907 69 q 406 -224 613 -224 q 210 -184 301 -224 q 51 -76 119 -144 l 218 276 l 218 347 l 126 347 l 126 460 l 218 460 l 218 501 q 365 856 218 708 q 719 1003 513 1003 q 914 963 822 1003 q 1074 856 1006 924 l 1074 856 z "},"ʺ":{"ha":694,"x_min":0,"x_max":0,"o":""},"ˆ":{"ha":381,"x_min":26,"x_max":354,"o":"m 351 1069 q 352 1065 351 1068 q 353 1061 353 1063 q 354 1056 354 1058 q 354 1051 354 1054 q 323 990 354 1017 q 243 957 292 964 q 238 956 240 957 q 232 956 235 956 q 225 956 228 956 q 219 956 222 956 q 179 960 199 956 q 143 974 160 964 l 106 992 l 94 974 l 38 965 l 29 1000 q 28 1005 29 1003 q 28 1010 28 1007 q 26 1014 26 1011 q 26 1018 26 1017 q 58 1078 26 1051 q 138 1111 89 1106 q 144 1112 140 1111 q 151 1113 147 1113 q 158 1113 154 1113 q 164 1113 161 1113 q 202 1108 183 1113 q 238 1096 221 1104 l 275 1078 l 285 1093 l 343 1101 l 351 1069 l 351 1069 z "},"ˇ":{"ha":510,"x_min":22,"x_max":485,"o":"m 22 1110 l 485 1110 l 254 932 l 22 1110 l 22 1110 z "},"ˉ":{"ha":694,"x_min":0,"x_max":0,"o":""},"˘":{"ha":694,"x_min":0,"x_max":0,"o":""},"˙":{"ha":694,"x_min":0,"x_max":0,"o":""},"˚":{"ha":381,"x_min":94,"x_max":285,"o":"m 285 1015 q 258 948 285 976 q 190 919 231 919 q 123 948 151 919 q 94 1015 94 976 q 123 1083 94 1056 q 190 1110 151 1110 q 258 1083 231 1110 q 285 1015 285 1056 l 285 1015 m 229 1015 q 218 1042 229 1031 q 190 1054 207 1054 q 161 1042 172 1054 q 150 1014 150 1029 q 154 1000 151 1007 q 163 988 157 993 q 176 978 169 982 q 190 975 183 975 q 217 986 206 975 q 229 1015 229 997 l 229 1015 z "},"˛":{"ha":694,"x_min":0,"x_max":0,"o":""},"˜":{"ha":510,"x_min":24,"x_max":486,"o":"m 486 938 l 24 938 l 254 1115 l 486 938 l 486 938 z "},"Γ":{"ha":694,"x_min":0,"x_max":0,"o":""},"Θ":{"ha":694,"x_min":0,"x_max":0,"o":""},"Σ":{"ha":694,"x_min":0,"x_max":0,"o":""},"Φ":{"ha":694,"x_min":0,"x_max":0,"o":""},"Ω":{"ha":694,"x_min":0,"x_max":0,"o":""},"α":{"ha":694,"x_min":0,"x_max":0,"o":""},"δ":{"ha":694,"x_min":0,"x_max":0,"o":""},"ε":{"ha":694,"x_min":0,"x_max":0,"o":""},"π":{"ha":694,"x_min":0,"x_max":0,"o":""},"σ":{"ha":486,"x_min":0,"x_max":0,"o":""},"τ":{"ha":694,"x_min":0,"x_max":0,"o":""},"φ":{"ha":486,"x_min":0,"x_max":0,"o":""},"–":{"ha":726,"x_min":11,"x_max":731,"o":"m 731 321 l 11 321 l 11 558 l 731 558 l 731 321 l 731 321 z "},"—":{"ha":961,"x_min":10,"x_max":968,"o":"m 968 321 l 10 321 l 10 558 l 968 558 l 968 321 l 968 321 z "},"‗":{"ha":694,"x_min":0,"x_max":0,"o":""},"‘":{"ha":343,"x_min":19,"x_max":318,"o":"m 19 781 l 196 1071 l 318 1071 l 318 781 l 19 781 l 19 781 z "},"’":{"ha":343,"x_min":40,"x_max":339,"o":"m 339 1072 l 163 782 l 40 782 l 40 1072 l 339 1072 l 339 1072 z "},"‚":{"ha":343,"x_min":40,"x_max":339,"o":"m 339 128 l 163 -162 l 40 -162 l 40 128 l 339 128 l 339 128 z "},"“":{"ha":604,"x_min":22,"x_max":585,"o":"m 585 722 l 22 722 l 199 1013 l 321 1013 l 321 779 l 463 1013 l 585 1013 l 585 722 l 585 722 z "},"”":{"ha":604,"x_min":40,"x_max":603,"o":"m 304 1015 l 163 782 l 40 782 l 40 1072 l 603 1072 l 426 782 l 304 782 l 304 1015 l 304 1015 m 304 1015 l 163 782 l 40 782 l 40 1072 l 603 1072 l 426 782 l 304 782 l 304 1015 l 304 1015 m 304 1015 l 163 782 l 40 782 l 40 1072 l 603 1072 l 426 782 l 304 782 l 304 1015 l 304 1015 z "},"„":{"ha":594,"x_min":40,"x_max":575,"o":"m 276 25 l 163 -162 l 40 -162 l 40 128 l 575 128 l 399 -162 l 276 -162 l 276 25 l 276 25 z "},"†":{"ha":694,"x_min":0,"x_max":0,"o":""},"‡":{"ha":694,"x_min":0,"x_max":0,"o":""},"•":{"ha":551,"x_min":26,"x_max":526,"o":"m 453 269 q 377 217 419 235 q 290 196 335 199 q 283 196 286 196 q 275 196 279 196 q 181 215 228 196 q 99 269 135 233 q 47 345 65 303 q 26 432 28 388 q 26 440 26 436 q 26 447 26 443 q 44 542 26 496 q 99 624 63 588 q 174 676 132 657 q 261 696 217 694 q 269 696 265 696 q 276 696 272 696 q 371 678 325 696 q 453 624 417 660 q 506 548 488 590 q 526 461 524 506 q 526 453 526 457 q 526 446 526 450 q 508 352 526 399 q 453 269 489 306 l 453 269 z "},"…":{"ha":840,"x_min":29,"x_max":835,"o":"m 242 10 q 200 -17 224 -8 q 153 -25 176 -25 q 106 -16 129 -25 q 65 10 83 -7 q 38 52 47 29 q 29 100 29 75 q 38 147 29 124 q 65 188 47 169 q 108 215 85 207 q 154 224 131 224 q 201 215 178 224 q 242 188 224 206 q 270 146 261 169 q 279 97 279 122 q 270 51 279 74 q 242 10 261 28 l 242 10 m 519 10 q 478 -17 501 -8 q 431 -25 454 -25 q 384 -16 407 -25 q 343 10 361 -7 q 316 52 325 29 q 307 100 307 75 q 316 147 307 124 q 343 188 325 169 q 385 215 363 207 q 432 224 408 224 q 478 215 456 224 q 519 188 501 206 q 548 146 539 169 q 557 97 557 122 q 548 51 557 74 q 519 10 539 28 l 519 10 m 797 10 q 756 -17 779 -8 q 708 -25 732 -25 q 662 -16 685 -25 q 621 10 639 -7 q 594 52 603 29 q 585 100 585 75 q 594 147 585 124 q 621 188 603 169 q 663 215 640 207 q 710 224 686 224 q 756 215 733 224 q 797 188 779 206 q 826 146 817 169 q 835 97 835 122 q 826 51 835 74 q 797 10 817 28 l 797 10 z "},"‰":{"ha":694,"x_min":0,"x_max":0,"o":""},"‹":{"ha":428,"x_min":46,"x_max":382,"o":"m 382 742 l 382 163 l 46 451 l 382 742 l 382 742 z "},"›":{"ha":428,"x_min":56,"x_max":390,"o":"m 390 451 l 56 163 l 56 742 l 390 451 l 390 451 m 390 451 l 56 163 l 56 742 l 390 451 l 390 451 m 390 451 l 56 163 l 56 742 l 390 451 l 390 451 z "},"‼":{"ha":694,"x_min":0,"x_max":0,"o":""},"ⁿ":{"ha":694,"x_min":0,"x_max":0,"o":""},"₣":{"ha":694,"x_min":0,"x_max":0,"o":""},"₧":{"ha":694,"x_min":0,"x_max":0,"o":""},"™":{"ha":694,"x_min":0,"x_max":0,"o":""},"←":{"ha":486,"x_min":0,"x_max":0,"o":""},"↑":{"ha":486,"x_min":0,"x_max":0,"o":""},"→":{"ha":694,"x_min":0,"x_max":0,"o":""},"↓":{"ha":486,"x_min":0,"x_max":0,"o":""},"↔":{"ha":486,"x_min":0,"x_max":0,"o":""},"↕":{"ha":486,"x_min":0,"x_max":0,"o":""},"↨":{"ha":486,"x_min":0,"x_max":0,"o":""},"∂":{"ha":694,"x_min":0,"x_max":0,"o":""},"∆":{"ha":694,"x_min":0,"x_max":0,"o":""},"∏":{"ha":486,"x_min":0,"x_max":0,"o":""},"−":{"ha":694,"x_min":0,"x_max":0,"o":""},"∕":{"ha":694,"x_min":0,"x_max":0,"o":""},"∙":{"ha":694,"x_min":0,"x_max":0,"o":""},"√":{"ha":694,"x_min":0,"x_max":0,"o":""},"∞":{"ha":486,"x_min":0,"x_max":0,"o":""},"∟":{"ha":486,"x_min":0,"x_max":0,"o":""},"∩":{"ha":486,"x_min":0,"x_max":0,"o":""},"∫":{"ha":486,"x_min":0,"x_max":0,"o":""},"≈":{"ha":694,"x_min":0,"x_max":0,"o":""},"≠":{"ha":694,"x_min":0,"x_max":0,"o":""},"≡":{"ha":486,"x_min":0,"x_max":0,"o":""},"≤":{"ha":694,"x_min":0,"x_max":0,"o":""},"≥":{"ha":694,"x_min":0,"x_max":0,"o":""},"⌂":{"ha":486,"x_min":0,"x_max":0,"o":""},"⌐":{"ha":486,"x_min":0,"x_max":0,"o":""},"⌠":{"ha":486,"x_min":0,"x_max":0,"o":""},"⌡":{"ha":486,"x_min":0,"x_max":0,"o":""},"─":{"ha":486,"x_min":0,"x_max":0,"o":""},"│":{"ha":486,"x_min":0,"x_max":0,"o":""},"┌":{"ha":486,"x_min":0,"x_max":0,"o":""},"┐":{"ha":486,"x_min":0,"x_max":0,"o":""},"└":{"ha":486,"x_min":0,"x_max":0,"o":""},"┘":{"ha":486,"x_min":0,"x_max":0,"o":""},"├":{"ha":486,"x_min":0,"x_max":0,"o":""},"┤":{"ha":486,"x_min":0,"x_max":0,"o":""},"┬":{"ha":486,"x_min":0,"x_max":0,"o":""},"┴":{"ha":486,"x_min":0,"x_max":0,"o":""},"┼":{"ha":486,"x_min":0,"x_max":0,"o":""},"═":{"ha":486,"x_min":0,"x_max":0,"o":""},"║":{"ha":486,"x_min":0,"x_max":0,"o":""},"╒":{"ha":486,"x_min":0,"x_max":0,"o":""},"╓":{"ha":486,"x_min":0,"x_max":0,"o":""},"╔":{"ha":486,"x_min":0,"x_max":0,"o":""},"╕":{"ha":486,"x_min":0,"x_max":0,"o":""},"╖":{"ha":486,"x_min":0,"x_max":0,"o":""},"╗":{"ha":486,"x_min":0,"x_max":0,"o":""},"╘":{"ha":486,"x_min":0,"x_max":0,"o":""},"╙":{"ha":486,"x_min":0,"x_max":0,"o":""},"╚":{"ha":486,"x_min":0,"x_max":0,"o":""},"╛":{"ha":486,"x_min":0,"x_max":0,"o":""},"╜":{"ha":486,"x_min":0,"x_max":0,"o":""},"╝":{"ha":486,"x_min":0,"x_max":0,"o":""},"╞":{"ha":486,"x_min":0,"x_max":0,"o":""},"╟":{"ha":486,"x_min":0,"x_max":0,"o":""},"╠":{"ha":486,"x_min":0,"x_max":0,"o":""},"╡":{"ha":486,"x_min":0,"x_max":0,"o":""},"╢":{"ha":486,"x_min":0,"x_max":0,"o":""},"╣":{"ha":486,"x_min":0,"x_max":0,"o":""},"╤":{"ha":486,"x_min":0,"x_max":0,"o":""},"╥":{"ha":486,"x_min":0,"x_max":0,"o":""},"╦":{"ha":486,"x_min":0,"x_max":0,"o":""},"╧":{"ha":486,"x_min":0,"x_max":0,"o":""},"╨":{"ha":486,"x_min":0,"x_max":0,"o":""},"╩":{"ha":486,"x_min":0,"x_max":0,"o":""},"╪":{"ha":486,"x_min":0,"x_max":0,"o":""},"╫":{"ha":486,"x_min":0,"x_max":0,"o":""},"╬":{"ha":486,"x_min":0,"x_max":0,"o":""},"▀":{"ha":486,"x_min":0,"x_max":0,"o":""},"▄":{"ha":486,"x_min":0,"x_max":0,"o":""},"█":{"ha":486,"x_min":0,"x_max":0,"o":""},"▌":{"ha":486,"x_min":0,"x_max":0,"o":""},"▐":{"ha":486,"x_min":0,"x_max":0,"o":""},"░":{"ha":486,"x_min":0,"x_max":0,"o":""},"▒":{"ha":486,"x_min":0,"x_max":0,"o":""},"▓":{"ha":486,"x_min":0,"x_max":0,"o":""},"■":{"ha":694,"x_min":0,"x_max":0,"o":""},"▬":{"ha":486,"x_min":0,"x_max":0,"o":""},"▲":{"ha":486,"x_min":0,"x_max":0,"o":""},"►":{"ha":486,"x_min":0,"x_max":0,"o":""},"▼":{"ha":486,"x_min":0,"x_max":0,"o":""},"◄":{"ha":486,"x_min":0,"x_max":0,"o":""},"◊":{"ha":694,"x_min":0,"x_max":0,"o":""},"○":{"ha":486,"x_min":0,"x_max":0,"o":""},"◘":{"ha":486,"x_min":0,"x_max":0,"o":""},"◙":{"ha":486,"x_min":0,"x_max":0,"o":""},"☺":{"ha":486,"x_min":0,"x_max":0,"o":""},"☻":{"ha":486,"x_min":0,"x_max":0,"o":""},"☼":{"ha":486,"x_min":0,"x_max":0,"o":""},"♀":{"ha":486,"x_min":0,"x_max":0,"o":""},"♂":{"ha":486,"x_min":0,"x_max":0,"o":""},"♠":{"ha":486,"x_min":0,"x_max":0,"o":""},"♣":{"ha":486,"x_min":0,"x_max":0,"o":""},"♥":{"ha":486,"x_min":0,"x_max":0,"o":""},"♦":{"ha":486,"x_min":0,"x_max":0,"o":""},"♪":{"ha":486,"x_min":0,"x_max":0,"o":""},"♫":{"ha":486,"x_min":0,"x_max":0,"o":""},"":{"ha":486,"x_min":0,"x_max":0,"o":""},"":{"ha":694,"x_min":0,"x_max":0,"o":""},"":{"ha":694,"x_min":0,"x_max":0,"o":""}}}
